<mxfile host="65bd71144e" scale="1" border="5">
    <diagram name="Page-1" id="DJYfV_x50qlvUbR0km-9">
        <mxGraphModel dx="1442" dy="472" grid="1" gridSize="10" guides="1" tooltips="1" connect="1" arrows="1" fold="1" page="1" pageScale="1" pageWidth="380" pageHeight="350" background="#ffffff" math="0" shadow="0">
            <root>
                <mxCell id="0"/>
                <mxCell id="1" parent="0"/>
                <mxCell id="K8TtYYT1EQgaI26Jpbr1-4" value="" style="rounded=0;whiteSpace=wrap;html=1;" parent="1" vertex="1">
                    <mxGeometry x="-390" y="240" width="650" height="100" as="geometry"/>
                </mxCell>
                <mxCell id="9" value="" style="rounded=0;whiteSpace=wrap;html=1;" parent="1" vertex="1">
                    <mxGeometry x="85" y="250" width="155" height="80" as="geometry"/>
                </mxCell>
                <mxCell id="K8TtYYT1EQgaI26Jpbr1-5" value="" style="rounded=0;whiteSpace=wrap;html=1;" parent="1" vertex="1">
                    <mxGeometry x="-390" y="360" width="570" height="100" as="geometry"/>
                </mxCell>
                <mxCell id="2" value="" style="rounded=0;whiteSpace=wrap;html=1;" parent="1" vertex="1">
                    <mxGeometry x="-270" y="250" width="340" height="200" as="geometry"/>
                </mxCell>
                <mxCell id="K8TtYYT1EQgaI26Jpbr1-1" value="" style="rounded=0;whiteSpace=wrap;html=1;" parent="1" vertex="1">
                    <mxGeometry x="-390" y="20" width="570" height="160" as="geometry"/>
                </mxCell>
                <mxCell id="K8TtYYT1EQgaI26Jpbr1-3" value="" style="rounded=0;whiteSpace=wrap;html=1;" parent="1" vertex="1">
                    <mxGeometry x="-390" y="500" width="570" height="100" as="geometry"/>
                </mxCell>
                <mxCell id="K8TtYYT1EQgaI26Jpbr1-6" value="Appresentation layer" style="text;html=1;align=center;verticalAlign=middle;resizable=0;points=[];autosize=1;strokeColor=none;fillColor=none;" parent="1" vertex="1">
                    <mxGeometry x="-390" y="20" width="130" height="30" as="geometry"/>
                </mxCell>
                <mxCell id="K8TtYYT1EQgaI26Jpbr1-7" value="Business layer" style="text;html=1;align=center;verticalAlign=middle;resizable=0;points=[];autosize=1;strokeColor=none;fillColor=none;" parent="1" vertex="1">
                    <mxGeometry x="-390" y="240" width="100" height="30" as="geometry"/>
                </mxCell>
                <mxCell id="K8TtYYT1EQgaI26Jpbr1-8" value="Data layer" style="text;html=1;align=center;verticalAlign=middle;resizable=0;points=[];autosize=1;strokeColor=none;fillColor=none;" parent="1" vertex="1">
                    <mxGeometry x="-390" y="500" width="80" height="30" as="geometry"/>
                </mxCell>
                <mxCell id="K8TtYYT1EQgaI26Jpbr1-9" value="Persistance layer" style="text;html=1;align=center;verticalAlign=middle;resizable=0;points=[];autosize=1;strokeColor=none;fillColor=none;" parent="1" vertex="1">
                    <mxGeometry x="-390" y="360" width="120" height="30" as="geometry"/>
                </mxCell>
                <mxCell id="K8TtYYT1EQgaI26Jpbr1-10" value="" style="rounded=0;whiteSpace=wrap;html=1;" parent="1" vertex="1">
                    <mxGeometry x="-360" y="60" width="510" height="100" as="geometry"/>
                </mxCell>
                <mxCell id="K8TtYYT1EQgaI26Jpbr1-11" value="User interface" style="text;html=1;align=center;verticalAlign=middle;resizable=0;points=[];autosize=1;strokeColor=none;fillColor=none;" parent="1" vertex="1">
                    <mxGeometry x="-155" y="60" width="100" height="30" as="geometry"/>
                </mxCell>
                <mxCell id="K8TtYYT1EQgaI26Jpbr1-12" value="Model to create the schedule" style="rounded=0;whiteSpace=wrap;html=1;" parent="1" vertex="1">
                    <mxGeometry x="-260" y="270" width="90" height="50" as="geometry"/>
                </mxCell>
                <mxCell id="K8TtYYT1EQgaI26Jpbr1-14" value="Admin view" style="rounded=0;whiteSpace=wrap;html=1;" parent="1" vertex="1">
                    <mxGeometry x="-340" y="90" width="120" height="50" as="geometry"/>
                </mxCell>
                <mxCell id="K8TtYYT1EQgaI26Jpbr1-17" value="Professor view" style="rounded=0;whiteSpace=wrap;html=1;" parent="1" vertex="1">
                    <mxGeometry x="-165" y="90" width="120" height="50" as="geometry"/>
                </mxCell>
                <mxCell id="K8TtYYT1EQgaI26Jpbr1-18" value="Student view" style="rounded=0;whiteSpace=wrap;html=1;" parent="1" vertex="1">
                    <mxGeometry x="10" y="90" width="120" height="50" as="geometry"/>
                </mxCell>
                <mxCell id="K8TtYYT1EQgaI26Jpbr1-19" value="Classroom Manager" style="rounded=0;whiteSpace=wrap;html=1;" parent="1" vertex="1">
                    <mxGeometry x="-45" y="270" width="100" height="50" as="geometry"/>
                </mxCell>
                <mxCell id="K8TtYYT1EQgaI26Jpbr1-20" value="Resolve the conflicts" style="rounded=0;whiteSpace=wrap;html=1;" parent="1" vertex="1">
                    <mxGeometry x="-150" y="270" width="90" height="50" as="geometry"/>
                </mxCell>
                <mxCell id="K8TtYYT1EQgaI26Jpbr1-21" value="Data Parser" style="rounded=0;whiteSpace=wrap;html=1;" parent="1" vertex="1">
                    <mxGeometry x="-100" y="390" width="90" height="50" as="geometry"/>
                </mxCell>
                <mxCell id="K8TtYYT1EQgaI26Jpbr1-22" value="External API" style="rounded=0;whiteSpace=wrap;html=1;" parent="1" vertex="1">
                    <mxGeometry x="220" y="385" width="120" height="60" as="geometry"/>
                </mxCell>
                <mxCell id="K8TtYYT1EQgaI26Jpbr1-23" value="" style="endArrow=classic;html=1;rounded=0;exitX=0;exitY=0.5;exitDx=0;exitDy=0;entryX=1;entryY=0.5;entryDx=0;entryDy=0;" parent="1" source="K8TtYYT1EQgaI26Jpbr1-22" target="K8TtYYT1EQgaI26Jpbr1-21" edge="1">
                    <mxGeometry width="50" height="50" relative="1" as="geometry">
                        <mxPoint x="-70" y="390" as="sourcePoint"/>
                        <mxPoint x="-20" y="340" as="targetPoint"/>
                    </mxGeometry>
                </mxCell>
                <mxCell id="K8TtYYT1EQgaI26Jpbr1-24" value="Object DAO" style="rounded=0;whiteSpace=wrap;html=1;" parent="1" vertex="1">
                    <mxGeometry x="-243.75" y="390" width="120" height="50" as="geometry"/>
                </mxCell>
                <mxCell id="K8TtYYT1EQgaI26Jpbr1-25" value="" style="shape=cylinder3;whiteSpace=wrap;html=1;boundedLbl=1;backgroundOutline=1;size=15;" parent="1" vertex="1">
                    <mxGeometry x="-123.75" y="510" width="37.5" height="60" as="geometry"/>
                </mxCell>
                <mxCell id="K8TtYYT1EQgaI26Jpbr1-26" value="Relational database" style="text;html=1;align=center;verticalAlign=middle;resizable=0;points=[];autosize=1;strokeColor=none;fillColor=none;" parent="1" vertex="1">
                    <mxGeometry x="-165" y="570" width="130" height="30" as="geometry"/>
                </mxCell>
                <mxCell id="4" value="Broker" style="rounded=0;whiteSpace=wrap;html=1;" parent="1" vertex="1">
                    <mxGeometry x="109" y="272.5" width="120" height="45" as="geometry"/>
                </mxCell>
                <mxCell id="5" value="" style="endArrow=classic;html=1;entryX=0;entryY=0.5;entryDx=0;entryDy=0;exitX=1;exitY=0.5;exitDx=0;exitDy=0;" parent="1" source="K8TtYYT1EQgaI26Jpbr1-19" target="4" edge="1">
                    <mxGeometry width="50" height="50" relative="1" as="geometry">
                        <mxPoint x="-123.75" y="350" as="sourcePoint"/>
                        <mxPoint x="86.25000000000023" y="320" as="targetPoint"/>
                        <Array as="points"/>
                    </mxGeometry>
                </mxCell>
                <mxCell id="8" value="Container 1" style="text;html=1;align=center;verticalAlign=middle;whiteSpace=wrap;rounded=0;" parent="1" vertex="1">
                    <mxGeometry x="-270" y="250" width="70" height="20" as="geometry"/>
                </mxCell>
                <mxCell id="11" value="Container 2" style="text;html=1;align=center;verticalAlign=middle;whiteSpace=wrap;rounded=0;" parent="1" vertex="1">
                    <mxGeometry x="85" y="250" width="70" height="20" as="geometry"/>
                </mxCell>
                <mxCell id="12" style="edgeStyle=none;html=1;exitX=0.5;exitY=0;exitDx=0;exitDy=0;entryX=1;entryY=0.5;entryDx=0;entryDy=0;" parent="1" source="4" target="K8TtYYT1EQgaI26Jpbr1-10" edge="1">
                    <mxGeometry relative="1" as="geometry">
                        <mxPoint x="250.00000000000023" y="130" as="targetPoint"/>
                        <Array as="points">
                            <mxPoint x="170" y="110"/>
                        </Array>
                    </mxGeometry>
                </mxCell>
                <mxCell id="13" value="" style="endArrow=classic;startArrow=classic;html=1;entryX=0.5;entryY=1;entryDx=0;entryDy=0;exitX=0.487;exitY=0.003;exitDx=0;exitDy=0;exitPerimeter=0;" parent="1" source="2" target="K8TtYYT1EQgaI26Jpbr1-10" edge="1">
                    <mxGeometry width="50" height="50" relative="1" as="geometry">
                        <mxPoint y="300" as="sourcePoint"/>
                        <mxPoint x="50" y="250" as="targetPoint"/>
                    </mxGeometry>
                </mxCell>
                <mxCell id="15" value="" style="endArrow=classic;startArrow=classic;html=1;entryX=0.5;entryY=1;entryDx=0;entryDy=0;exitX=0.491;exitY=-0.005;exitDx=0;exitDy=0;exitPerimeter=0;" parent="1" source="K8TtYYT1EQgaI26Jpbr1-3" edge="1">
                    <mxGeometry width="50" height="50" relative="1" as="geometry">
                        <mxPoint x="-109" y="551" as="sourcePoint"/>
                        <mxPoint x="-110" y="460" as="targetPoint"/>
                    </mxGeometry>
                </mxCell>
            </root>
        </mxGraphModel>
    </diagram>
</mxfile>